<svg width="32" height="32" viewBox="0 0 32 32" fill="none" xmlns="http://www.w3.org/2000/svg">
<rect width="32" height="32" rx="5" fill="white"/>
<path fill-rule="evenodd" clip-rule="evenodd" d="M3.599 28.325C4.665 29.495 6.238 30.08 8.318 30.08C10.424 30.08 12.023 29.482 13.115 28.286C14.233 27.09 14.792 25.374 14.792 23.138C14.792 21.422 14.454 19.927 13.778 18.653C13.102 17.379 11.867 15.962 10.073 14.402C8.669 13.18 7.694 12.14 7.148 11.282C6.628 10.424 6.368 9.501 6.368 8.513C6.368 6.771 7.083 5.9 8.513 5.9C9.215 5.9 9.748 6.121 10.112 6.563C10.476 6.979 10.658 7.655 10.658 8.591V9.995H14.714V8.864C14.714 6.654 14.181 4.964 13.115 3.794C12.075 2.598 10.528 2 8.474 2C6.394 2 4.808 2.598 3.716 3.794C2.624 4.964 2.078 6.628 2.078 8.786C2.078 10.372 2.429 11.802 3.131 13.076C3.833 14.324 5.068 15.728 6.836 17.288C8.24 18.51 9.202 19.563 9.722 20.447C10.242 21.305 10.502 22.306 10.502 23.45C10.502 24.412 10.307 25.114 9.917 25.556C9.553 25.972 9.007 26.18 8.279 26.18C6.797 26.18 6.056 25.296 6.056 23.528V21.656H2V23.216C2 25.426 2.533 27.129 3.599 28.325ZM19.3577 28.325C20.4497 29.495 22.0357 30.08 24.1157 30.08C26.1957 30.08 27.7817 29.495 28.8737 28.325C29.9657 27.129 30.5117 25.426 30.5117 23.216V14.285H24.3107V18.185H26.4557V23.528C26.4557 25.296 25.7147 26.18 24.2327 26.18C22.7507 26.18 22.0097 25.296 22.0097 23.528V8.591C22.0097 6.797 22.7507 5.9 24.2327 5.9C25.7147 5.9 26.4557 6.797 26.4557 8.591V11.204H30.5117V8.864C30.5117 6.654 29.9657 4.964 28.8737 3.794C27.7817 2.598 26.1957 2 24.1157 2C22.0357 2 20.4497 2.598 19.3577 3.794C18.2657 4.964 17.7197 6.654 17.7197 8.864V23.216C17.7197 25.426 18.2657 27.129 19.3577 28.325Z" fill="url(#paint0_linear_5444_39)"/>
<defs>
<linearGradient id="paint0_linear_5444_39" x1="-2.22119" y1="-9.50862" x2="32.864" y2="-9.50862" gradientUnits="userSpaceOnUse">
<stop offset="0.0895454" stop-color="#003D85"/>
<stop offset="0.870294" stop-color="#B80027"/>
</linearGradient>
</defs>
</svg>
